<svg width="94" height="77" viewBox="0 0 94 77" fill="none" xmlns="http://www.w3.org/2000/svg">
<g clip-path="url(#clip0_80_2)">
<path d="M46.81 0C23.8 0 0 5.32 0 14.21V64.75C0 69.34 6.35 73.34 17.88 76.02C17.88 76.02 17.88 76.02 17.89 76.02C17.96 76.04 18.03 76.04 18.1 76.04C18.2 76.04 18.3 76.02 18.39 75.99C18.41 75.99 18.42 75.99 18.44 75.98C18.53 75.95 18.62 75.9 18.69 75.84C18.69 75.84 18.7 75.84 18.71 75.83C18.72 75.82 18.73 75.81 18.74 75.8C18.77 75.77 18.8 75.74 18.83 75.71C18.85 75.69 18.87 75.67 18.88 75.65C18.91 75.61 18.93 75.58 18.95 75.54C18.96 75.52 18.98 75.5 18.99 75.47C19.01 75.42 19.03 75.38 19.04 75.33C19.04 75.31 19.05 75.29 19.06 75.27C19.08 75.2 19.08 75.13 19.08 75.06V55.24C19.21 55.21 19.35 55.18 19.48 55.15C19.72 55.1 19.96 55.05 20.2 55C20.47 54.94 20.75 54.89 21.02 54.83C21.26 54.78 21.51 54.73 21.76 54.69C22.04 54.64 22.32 54.58 22.61 54.53C22.86 54.48 23.11 54.44 23.36 54.4C23.65 54.35 23.94 54.3 24.23 54.25C24.49 54.21 24.74 54.17 25 54.13C25.3 54.08 25.59 54.04 25.89 53.99C26.15 53.95 26.41 53.91 26.68 53.87C26.98 53.83 27.29 53.79 27.59 53.75C27.86 53.71 28.12 53.68 28.39 53.64C28.7 53.6 29.01 53.56 29.32 53.53C29.59 53.5 29.86 53.47 30.13 53.43C30.45 53.39 30.77 53.36 31.09 53.33C31.36 53.3 31.63 53.27 31.91 53.24C32.23 53.21 32.56 53.18 32.88 53.15C33.16 53.12 33.43 53.1 33.71 53.07C34.04 53.04 34.36 53.02 34.69 52.99C34.97 52.97 35.25 52.94 35.53 52.92C35.87 52.9 36.21 52.87 36.54 52.85C36.81 52.83 37.09 52.81 37.36 52.8C37.71 52.78 38.06 52.76 38.41 52.74C38.68 52.73 38.95 52.71 39.22 52.7C39.58 52.68 39.94 52.67 40.3 52.65C40.57 52.64 40.83 52.63 41.1 52.62C41.48 52.61 41.86 52.6 42.24 52.58C42.49 52.58 42.74 52.56 42.99 52.56C43.42 52.55 43.85 52.54 44.27 52.54C44.47 52.54 44.68 52.54 44.88 52.53C45.51 52.53 46.15 52.52 46.79 52.52C47.43 52.52 48.06 52.52 48.7 52.53C48.9 52.53 49.11 52.53 49.31 52.54C49.74 52.54 50.17 52.55 50.59 52.56C50.84 52.56 51.09 52.58 51.34 52.58C51.72 52.59 52.1 52.6 52.48 52.62C52.75 52.62 53.01 52.64 53.28 52.65C53.64 52.67 54 52.68 54.36 52.7C54.63 52.71 54.9 52.73 55.17 52.74C55.52 52.76 55.87 52.78 56.22 52.8C56.5 52.82 56.77 52.84 57.04 52.85C57.38 52.87 57.72 52.89 58.05 52.92C58.33 52.94 58.61 52.96 58.89 52.99C59.22 53.02 59.55 53.04 59.87 53.07C60.15 53.09 60.42 53.12 60.7 53.15C61.02 53.18 61.35 53.21 61.67 53.24C61.94 53.27 62.22 53.3 62.49 53.33C62.81 53.36 63.13 53.4 63.45 53.43C63.72 53.46 63.99 53.49 64.26 53.53C64.57 53.57 64.88 53.6 65.19 53.64C65.46 53.67 65.72 53.71 65.99 53.75C66.3 53.79 66.6 53.83 66.9 53.87C67.16 53.91 67.42 53.95 67.69 53.99C67.99 54.03 68.29 54.08 68.58 54.13C68.84 54.17 69.09 54.21 69.35 54.25C69.64 54.3 69.93 54.35 70.22 54.4C70.47 54.44 70.72 54.49 70.97 54.53C71.25 54.58 71.54 54.63 71.82 54.69C72.07 54.74 72.31 54.79 72.56 54.83C72.84 54.88 73.11 54.94 73.38 55C73.62 55.05 73.86 55.1 74.1 55.15C74.24 55.18 74.37 55.21 74.5 55.24V75.06C74.5 75.13 74.5 75.2 74.52 75.27C74.52 75.29 74.53 75.31 74.54 75.33C74.55 75.38 74.57 75.43 74.59 75.47C74.6 75.49 74.61 75.51 74.63 75.54C74.65 75.58 74.67 75.62 74.7 75.65C74.72 75.67 74.73 75.69 74.75 75.71C74.78 75.74 74.81 75.77 74.84 75.8C74.85 75.81 74.86 75.82 74.87 75.83C74.87 75.83 74.88 75.83 74.89 75.84C74.97 75.9 75.05 75.94 75.14 75.98C75.16 75.98 75.17 75.98 75.19 75.99C75.28 76.02 75.38 76.04 75.48 76.04C75.55 76.04 75.62 76.04 75.69 76.02C75.69 76.02 75.69 76.02 75.7 76.02C87.23 73.34 93.58 69.34 93.58 64.75V14.21C93.58 5.31 69.78 0 46.77 0H46.81ZM46.81 1.98C73.62 1.98 91.64 8.3 91.64 14.21C91.64 17.63 85.38 21.21 75.29 23.55C75.24 23.56 75.19 23.58 75.14 23.6C75.14 23.6 75.12 23.6 75.11 23.61C75.09 23.61 75.07 23.63 75.05 23.64C75.02 23.66 74.99 23.67 74.96 23.69C74.96 23.69 74.95 23.7 74.94 23.71C74.92 23.72 74.91 23.74 74.89 23.75C74.87 23.77 74.84 23.79 74.82 23.81C74.82 23.81 74.8 23.83 74.79 23.84C74.78 23.85 74.77 23.87 74.75 23.88C74.73 23.9 74.71 23.92 74.7 23.95C74.69 23.96 74.68 23.98 74.67 23.99C74.67 24 74.66 24.01 74.65 24.02C74.63 24.05 74.62 24.07 74.61 24.1C74.61 24.12 74.59 24.14 74.58 24.16C74.58 24.16 74.58 24.18 74.57 24.19C74.56 24.22 74.55 24.25 74.54 24.29C74.54 24.31 74.53 24.33 74.52 24.35C74.52 24.36 74.52 24.37 74.52 24.38C74.52 24.43 74.51 24.48 74.51 24.53V53.22C74.45 53.21 74.39 53.2 74.33 53.18C74.09 53.13 73.85 53.08 73.6 53.03C73.32 52.97 73.04 52.91 72.75 52.86C72.5 52.81 72.26 52.76 72.01 52.72C71.72 52.67 71.43 52.61 71.14 52.56C70.89 52.51 70.64 52.47 70.39 52.43C70.09 52.38 69.8 52.33 69.5 52.28C69.25 52.24 68.99 52.2 68.73 52.16C68.43 52.11 68.13 52.07 67.82 52.02C67.56 51.98 67.3 51.94 67.04 51.91C66.73 51.87 66.42 51.82 66.11 51.78C65.85 51.74 65.58 51.71 65.32 51.68C65.01 51.64 64.69 51.6 64.37 51.56C64.1 51.53 63.84 51.5 63.57 51.47C63.25 51.43 62.93 51.4 62.6 51.36C62.33 51.33 62.06 51.3 61.8 51.28C61.47 51.25 61.14 51.22 60.81 51.19C60.54 51.17 60.27 51.14 60 51.12C59.66 51.09 59.33 51.06 58.99 51.04C58.72 51.02 58.45 51 58.18 50.98C57.84 50.95 57.49 50.93 57.14 50.91C56.87 50.89 56.6 50.87 56.33 50.86C55.98 50.84 55.62 50.82 55.26 50.8C54.99 50.79 54.72 50.77 54.45 50.76C54.09 50.74 53.72 50.73 53.35 50.71C53.09 50.7 52.82 50.69 52.55 50.68C52.17 50.67 51.78 50.66 51.4 50.65C51.15 50.65 50.9 50.63 50.64 50.63C50.21 50.62 49.77 50.61 49.33 50.61C49.12 50.61 48.92 50.61 48.71 50.6C48.07 50.6 47.42 50.59 46.77 50.59C46.12 50.59 45.47 50.59 44.83 50.6C44.62 50.6 44.42 50.6 44.21 50.61C43.77 50.61 43.34 50.62 42.9 50.63C42.65 50.63 42.4 50.64 42.14 50.65C41.76 50.66 41.37 50.67 40.99 50.68C40.72 50.68 40.46 50.7 40.19 50.71C39.82 50.72 39.46 50.74 39.09 50.76C38.82 50.77 38.55 50.79 38.28 50.8C37.92 50.82 37.57 50.84 37.21 50.86C36.94 50.88 36.67 50.89 36.4 50.91C36.05 50.93 35.71 50.96 35.36 50.98C35.09 51 34.82 51.02 34.55 51.04C34.21 51.07 33.87 51.09 33.54 51.12C33.27 51.14 33 51.17 32.73 51.19C32.4 51.22 32.07 51.25 31.74 51.28C31.47 51.31 31.2 51.33 30.94 51.36C30.62 51.39 30.29 51.43 29.97 51.47C29.7 51.5 29.44 51.53 29.17 51.56C28.85 51.6 28.54 51.64 28.22 51.68C27.96 51.71 27.69 51.75 27.43 51.78C27.12 51.82 26.81 51.86 26.5 51.91C26.24 51.95 25.98 51.98 25.72 52.02C25.42 52.07 25.11 52.11 24.81 52.16C24.55 52.2 24.3 52.24 24.04 52.28C23.74 52.33 23.44 52.38 23.15 52.43C22.9 52.47 22.65 52.52 22.4 52.56C22.11 52.61 21.82 52.67 21.53 52.72C21.28 52.77 21.03 52.81 20.79 52.86C20.5 52.92 20.22 52.97 19.94 53.03C19.7 53.08 19.45 53.13 19.21 53.18C19.15 53.19 19.09 53.2 19.03 53.22V24.53C19.03 24.48 19.03 24.43 19.02 24.38C19.02 24.37 19.02 24.36 19.02 24.35C19.02 24.33 19.01 24.31 19 24.29C19 24.26 18.98 24.22 18.97 24.19C18.97 24.19 18.97 24.17 18.96 24.16C18.96 24.14 18.94 24.12 18.93 24.1C18.92 24.07 18.9 24.05 18.89 24.02C18.89 24.01 18.88 24 18.87 23.99C18.87 23.98 18.85 23.96 18.84 23.95C18.82 23.93 18.81 23.9 18.79 23.88C18.78 23.87 18.77 23.85 18.75 23.84C18.75 23.84 18.73 23.82 18.72 23.81C18.7 23.79 18.68 23.77 18.65 23.75C18.63 23.74 18.62 23.72 18.6 23.71C18.6 23.71 18.59 23.7 18.58 23.69C18.55 23.67 18.52 23.66 18.49 23.64C18.47 23.64 18.45 23.62 18.43 23.61C18.43 23.61 18.41 23.61 18.4 23.6C18.35 23.58 18.3 23.56 18.25 23.55C8.25 21.21 1.98 17.63 1.98 14.21C1.98 8.3 19.99 1.98 46.81 1.98ZM1.98 64.75V18.48C1.98 18.48 2.04 18.53 2.06 18.56C2.17 18.67 2.28 18.78 2.4 18.89C2.45 18.93 2.49 18.98 2.54 19.02C2.71 19.17 2.88 19.32 3.06 19.46C3.08 19.47 3.09 19.48 3.11 19.5C3.28 19.63 3.46 19.77 3.64 19.9C3.7 19.95 3.77 19.99 3.83 20.03C3.98 20.13 4.13 20.24 4.28 20.34C4.35 20.38 4.42 20.43 4.48 20.47C4.67 20.59 4.87 20.72 5.07 20.84C5.1 20.86 5.13 20.88 5.16 20.9C5.4 21.04 5.64 21.18 5.89 21.31C5.96 21.35 6.03 21.39 6.11 21.42C6.3 21.52 6.49 21.62 6.69 21.72C6.78 21.76 6.86 21.81 6.95 21.85C7.16 21.95 7.38 22.06 7.61 22.16C7.67 22.19 7.74 22.22 7.8 22.25C8.09 22.38 8.38 22.51 8.69 22.63C8.76 22.66 8.83 22.69 8.9 22.72C9.14 22.82 9.38 22.91 9.63 23.01C9.73 23.05 9.83 23.09 9.94 23.13C10.18 23.22 10.43 23.31 10.68 23.4C10.77 23.43 10.86 23.46 10.95 23.5C11.29 23.62 11.63 23.74 11.99 23.85C12.03 23.86 12.08 23.88 12.12 23.89C12.43 23.99 12.75 24.09 13.08 24.19C13.19 24.22 13.3 24.26 13.41 24.29C13.69 24.37 13.96 24.45 14.25 24.54C14.36 24.57 14.47 24.6 14.58 24.64C14.96 24.75 15.34 24.85 15.74 24.95H15.76C16.17 25.06 16.58 25.16 17 25.26C17.04 25.26 17.07 25.28 17.11 25.29V73.79C7.74 71.45 1.97 68.02 1.97 64.74L1.98 64.75ZM91.63 18.48V64.74C91.63 68.02 85.87 71.45 76.49 73.79V25.3C76.49 25.3 76.56 25.28 76.6 25.27C77.02 25.17 77.43 25.06 77.84 24.96H77.86C78.25 24.86 78.64 24.75 79.02 24.65C79.13 24.62 79.24 24.59 79.35 24.55C79.63 24.47 79.91 24.39 80.19 24.3C80.3 24.27 80.41 24.23 80.52 24.2C80.84 24.1 81.16 24 81.48 23.9C81.52 23.89 81.57 23.87 81.61 23.86C81.96 23.74 82.31 23.62 82.65 23.51C82.74 23.48 82.83 23.45 82.92 23.41C83.17 23.32 83.42 23.23 83.66 23.14C83.76 23.1 83.86 23.06 83.96 23.02C84.21 22.92 84.45 22.83 84.69 22.73C84.76 22.7 84.83 22.67 84.9 22.64C85.2 22.51 85.5 22.39 85.79 22.26C85.85 22.23 85.91 22.2 85.98 22.17C86.2 22.07 86.42 21.96 86.64 21.86C86.73 21.82 86.81 21.78 86.9 21.73C87.1 21.63 87.29 21.53 87.48 21.43C87.55 21.39 87.63 21.35 87.7 21.32C87.95 21.18 88.2 21.05 88.43 20.91C88.46 20.89 88.49 20.87 88.52 20.86C88.72 20.74 88.92 20.62 89.12 20.49C89.19 20.45 89.26 20.4 89.32 20.36C89.48 20.26 89.63 20.15 89.77 20.05C89.83 20.01 89.9 19.96 89.96 19.92C90.14 19.79 90.32 19.65 90.49 19.52C90.5 19.51 90.52 19.5 90.54 19.49C90.72 19.34 90.9 19.19 91.06 19.05C91.11 19.01 91.16 18.96 91.2 18.92C91.32 18.81 91.43 18.7 91.54 18.59C91.57 18.56 91.6 18.54 91.62 18.51L91.63 18.48Z" fill="black"/>
<path d="M31.67 36.7399L46.31 45.1899C46.31 45.1899 46.34 45.1899 46.35 45.2099C46.4 45.2399 46.46 45.2599 46.51 45.2799C46.53 45.2799 46.55 45.2899 46.57 45.2999C46.64 45.3199 46.72 45.3299 46.8 45.3299C46.88 45.3299 46.96 45.3199 47.03 45.2999C47.05 45.2999 47.07 45.2899 47.09 45.2799C47.15 45.2599 47.2 45.2399 47.25 45.2099C47.26 45.2099 47.28 45.2099 47.29 45.1899L61.93 36.7399C62.24 36.5599 62.43 36.2399 62.43 35.8799V18.9799C62.43 18.9799 62.43 18.9499 62.43 18.9399C62.43 18.8799 62.42 18.8199 62.41 18.7599C62.41 18.7399 62.41 18.7199 62.4 18.6999C62.38 18.6299 62.35 18.5499 62.31 18.4799C62.27 18.4099 62.22 18.3499 62.17 18.2999C62.16 18.2799 62.14 18.2699 62.12 18.2599C62.08 18.2199 62.03 18.1799 61.98 18.1499C61.97 18.1499 61.96 18.1299 61.95 18.1299L47.31 9.67992C47 9.49992 46.63 9.49992 46.32 9.67992L31.68 18.1299C31.68 18.1299 31.66 18.1499 31.65 18.1499C31.6 18.1799 31.55 18.2199 31.51 18.2599C31.49 18.2699 31.48 18.2899 31.46 18.2999C31.41 18.3499 31.36 18.4099 31.32 18.4799C31.28 18.5499 31.25 18.6199 31.23 18.6899C31.23 18.7099 31.23 18.7299 31.22 18.7499C31.21 18.8099 31.2 18.8699 31.2 18.9299C31.2 18.9399 31.2 18.9599 31.2 18.9699V35.8699C31.2 36.2199 31.39 36.5499 31.7 36.7299L31.67 36.7399ZM33.16 20.6999L45.82 28.0099V42.6299L33.16 35.3199V20.6999ZM47.8 42.6199V27.9999L60.46 20.6899V35.3099L47.8 42.6199ZM46.81 11.6699L59.47 18.9799L46.81 26.2899L34.15 18.9799L46.81 11.6699Z" fill="black"/>
</g>
<defs>
<clipPath id="clip0_80_2">
<rect width="93.61" height="76.04" fill="white"/>
</clipPath>
</defs>
</svg>
