<svg width="96" height="95" viewBox="0 0 96 95" fill="none" xmlns="http://www.w3.org/2000/svg">
<g clip-path="url(#clip0_81_98)">
<path d="M68.96 75.01C68.28 75.01 67.72 75.56 67.72 76.25V92.46H2.47V27.2H18.77C19.45 27.2 20.01 26.65 20.01 25.96C20.01 25.27 19.46 24.72 18.77 24.72H1.24C0.56 24.72 0 25.27 0 25.96V93.69C0 94.37 0.55 94.93 1.24 94.93H68.97C69.65 94.93 70.21 94.38 70.21 93.69V76.24C70.21 75.56 69.66 75 68.97 75L68.96 75.01Z" fill="black"/>
<path d="M26.53 31.0899C27.21 31.0899 27.77 30.5399 27.77 29.8499V22.4299C27.77 21.7499 27.22 21.1899 26.53 21.1899C25.84 21.1899 25.29 21.7399 25.29 22.4299V29.8499C25.29 30.5299 25.84 31.0899 26.53 31.0899Z" fill="black"/>
<path d="M26.53 45.92C27.21 45.92 27.77 45.37 27.77 44.68V37.26C27.77 36.58 27.22 36.02 26.53 36.02C25.84 36.02 25.29 36.57 25.29 37.26V44.68C25.29 45.36 25.84 45.92 26.53 45.92Z" fill="black"/>
<path d="M26.53 70.2799H31.84C32.52 70.2799 33.08 69.7299 33.08 69.0399C33.08 68.3499 32.53 67.7999 31.84 67.7999H27.77V66.9299C27.77 66.2499 27.22 65.6899 26.53 65.6899C25.84 65.6899 25.29 66.2399 25.29 66.9299V69.0399C25.29 69.7199 25.84 70.2799 26.53 70.2799Z" fill="black"/>
<path d="M26.53 60.7601C27.21 60.7601 27.77 60.2101 27.77 59.5201V52.1001C27.77 51.4201 27.22 50.8601 26.53 50.8601C25.84 50.8601 25.29 51.4101 25.29 52.1001V59.5201C25.29 60.2001 25.84 60.7601 26.53 60.7601Z" fill="black"/>
<path d="M26.53 16.2501C27.21 16.2501 27.77 15.7001 27.77 15.0101V7.5901C27.77 6.9101 27.22 6.3501 26.53 6.3501C25.84 6.3501 25.29 6.9001 25.29 7.5901V15.0101C25.29 15.6901 25.84 16.2501 26.53 16.2501Z" fill="black"/>
<path d="M57.25 2.46999H64.67C65.35 2.46999 65.91 1.91999 65.91 1.22999C65.91 0.53999 65.36 -0.0100098 64.67 -0.0100098H57.25C56.57 -0.0100098 56.01 0.53999 56.01 1.22999C56.01 1.91999 56.56 2.46999 57.25 2.46999Z" fill="black"/>
<path d="M27.59 2.46999H35.01C35.69 2.46999 36.25 1.91999 36.25 1.22999C36.25 0.53999 35.7 -0.0100098 35.01 -0.0100098H27.59C26.91 -0.0100098 26.35 0.53999 26.35 1.22999C26.35 1.91999 26.9 2.46999 27.59 2.46999Z" fill="black"/>
<path d="M72.09 2.46999H79.51C80.19 2.46999 80.75 1.91999 80.75 1.22999C80.75 0.53999 80.2 -0.0100098 79.51 -0.0100098H72.09C71.41 -0.0100098 70.85 0.53999 70.85 1.22999C70.85 1.91999 71.4 2.46999 72.09 2.46999Z" fill="black"/>
<path d="M39.26 70.28H46.68C47.36 70.28 47.92 69.73 47.92 69.04C47.92 68.35 47.37 67.8 46.68 67.8H39.26C38.58 67.8 38.02 68.35 38.02 69.04C38.02 69.73 38.57 70.28 39.26 70.28Z" fill="black"/>
<path d="M42.42 2.46999H49.84C50.52 2.46999 51.08 1.91999 51.08 1.22999C51.08 0.53999 50.53 -0.0100098 49.84 -0.0100098H42.42C41.74 -0.0100098 41.18 0.53999 41.18 1.22999C41.18 1.91999 41.73 2.46999 42.42 2.46999Z" fill="black"/>
<path d="M61.51 70.28C62.19 70.28 62.75 69.73 62.75 69.04C62.75 68.35 62.2 67.8 61.51 67.8H54.09C53.41 67.8 52.85 68.35 52.85 69.04C52.85 69.73 53.4 70.28 54.09 70.28H61.51Z" fill="black"/>
<path d="M94.34 26.47C93.66 26.47 93.1 27.02 93.1 27.71V35.13C93.1 35.81 93.65 36.37 94.34 36.37C95.03 36.37 95.58 35.82 95.58 35.13V27.71C95.58 27.03 95.03 26.47 94.34 26.47Z" fill="black"/>
<path d="M94.34 56.1399C93.66 56.1399 93.1 56.6899 93.1 57.3799V64.7999C93.1 65.4799 93.65 66.0399 94.34 66.0399C95.03 66.0399 95.58 65.4899 95.58 64.7999V57.3799C95.58 56.6999 95.03 56.1399 94.34 56.1399Z" fill="black"/>
<path d="M94.34 41.3101C93.66 41.3101 93.1 41.8601 93.1 42.5501V49.9701C93.1 50.6501 93.65 51.2101 94.34 51.2101C95.03 51.2101 95.58 50.6601 95.58 49.9701V42.5501C95.58 41.8701 95.03 41.3101 94.34 41.3101Z" fill="black"/>
<path d="M94.34 0H86.92C86.24 0 85.68 0.55 85.68 1.24C85.68 1.93 86.23 2.48 86.92 2.48H93.1V5.46C93.1 6.14 93.65 6.7 94.34 6.7C95.03 6.7 95.58 6.15 95.58 5.46V1.24C95.58 0.56 95.03 0 94.34 0Z" fill="black"/>
<path d="M94.34 11.6399C93.66 11.6399 93.1 12.1899 93.1 12.8799V20.2999C93.1 20.9799 93.65 21.5399 94.34 21.5399C95.03 21.5399 95.58 20.9899 95.58 20.2999V12.8799C95.58 12.1999 95.03 11.6399 94.34 11.6399Z" fill="black"/>
<path d="M91.18 67.8101H83.76C83.08 67.8101 82.52 68.3601 82.52 69.0501C82.52 69.7401 83.07 70.2901 83.76 70.2901H91.18C91.86 70.2901 92.42 69.7401 92.42 69.0501C92.42 68.3601 91.87 67.8101 91.18 67.8101Z" fill="black"/>
<path d="M76.34 67.8101H68.92C68.24 67.8101 67.68 68.3601 67.68 69.0501C67.68 69.7401 68.23 70.2901 68.92 70.2901H76.34C77.02 70.2901 77.58 69.7401 77.58 69.0501C77.58 68.3601 77.03 67.8101 76.34 67.8101Z" fill="black"/>
<path d="M66.87 18.6201C65.55 16.2601 63.14 14.8501 60.43 14.8501C57.72 14.8501 55.32 16.2601 53.99 18.6201L40.41 42.8801C39.12 45.1901 39.14 47.9301 40.48 50.2101C41.82 52.4901 44.2 53.8601 46.84 53.8601H74C76.65 53.8601 79.03 52.5001 80.36 50.2101C81.7 47.9301 81.73 45.1801 80.43 42.8801L66.85 18.6201H66.87ZM78.25 48.9601C77.36 50.4801 75.78 51.3801 74.02 51.3801H46.86C45.1 51.3801 43.52 50.4701 42.63 48.9601C41.74 47.4501 41.72 45.6201 42.58 44.0801L56.16 19.8201C57.04 18.2501 58.64 17.3101 60.44 17.3101C62.24 17.3101 63.84 18.2501 64.72 19.8201L78.3 44.0801C79.16 45.6201 79.14 47.4401 78.25 48.9601Z" fill="black"/>
<path d="M60.44 25.02C59.76 25.02 59.2 25.57 59.2 26.26V38.83C59.2 39.51 59.75 40.07 60.44 40.07C61.13 40.07 61.68 39.52 61.68 38.83V26.26C61.68 25.58 61.13 25.02 60.44 25.02Z" fill="black"/>
<path d="M59.56 43.1599C59.32 43.3899 59.2 43.7099 59.2 44.0299C59.2 44.1099 59.2 44.1999 59.22 44.2799C59.23 44.3499 59.26 44.4299 59.29 44.5099C59.32 44.5799 59.36 44.6499 59.4 44.7199C59.45 44.7899 59.5 44.8499 59.56 44.9099C59.79 45.1399 60.1 45.2699 60.43 45.2699C60.76 45.2699 61.07 45.1399 61.3 44.9099C61.36 44.8499 61.41 44.7899 61.46 44.7199C61.5 44.6499 61.54 44.5799 61.57 44.5099C61.6 44.4399 61.63 44.3599 61.64 44.2799C61.66 44.1999 61.66 44.1099 61.66 44.0299C61.66 43.7099 61.53 43.3899 61.3 43.1599C60.84 42.6999 60.01 42.6999 59.56 43.1599Z" fill="black"/>
</g>
<defs>
<clipPath id="clip0_81_98">
<rect width="95.58" height="94.93" fill="white"/>
</clipPath>
</defs>
</svg>
