<svg width="38" height="28" viewBox="0 0 38 28" fill="none" xmlns="http://www.w3.org/2000/svg">
<g clip-path="url(#clip0_191_269)">
<path d="M30.5675 2.45083C24.134 2.45083 18.9995 0 18.9995 0V6.88217C18.9995 6.88217 24.134 9.333 30.5675 9.333C35.862 9.333 38 6.88217 38 6.88217V0C38 0 35.862 2.45083 30.5675 2.45083Z" fill="#2563CA"/>
<path d="M30.5676 13.0103C24.134 13.0103 18.9995 10.5595 18.9995 10.5595C18.9995 10.5595 12.6613 8.10864 7.36679 8.10864C0.934109 8.10764 0 10.5595 0 10.5595V17.4416C0 17.4416 0.934109 14.9908 7.36679 14.9908C12.6613 14.9908 18.9995 17.4416 18.9995 17.4416C18.9995 17.4416 24.134 19.8925 30.5676 19.8925C35.8621 19.8925 38 17.4416 38 17.4416V10.5595C38 10.5595 35.8621 13.0103 30.5676 13.0103Z" fill="#2563CA"/>
<path d="M7.36679 25.5492C0.934109 25.5492 0 28 0 28V21.1178C0 21.1178 0.934109 18.667 7.36679 18.667C12.6613 18.667 18.9995 21.1178 18.9995 21.1178V28C18.9995 28 12.6613 25.5492 7.36679 25.5492Z" fill="#2563CA"/>
</g>
<defs>
<clipPath id="clip0_191_269">
<rect width="38" height="28" fill="white"/>
</clipPath>
</defs>
</svg>
