<svg width="90" height="90" viewBox="0 0 90 90" fill="none" xmlns="http://www.w3.org/2000/svg">
<g clip-path="url(#clip0_81_125)">
<path d="M44.53 0C19.98 0 0 19.98 0 44.53C0 69.08 19.98 89.06 44.53 89.06C69.08 89.06 89.06 69.08 89.06 44.53C89.06 19.98 69.08 0 44.53 0ZM44.53 86.58C21.34 86.58 2.47 67.71 2.47 44.52C2.47 21.33 21.34 2.47 44.53 2.47C67.72 2.47 86.59 21.34 86.59 44.53C86.59 67.72 67.72 86.59 44.53 86.59V86.58Z" fill="black"/>
<path d="M62.46 40.76H51.12L59.03 20.14C59.18 19.76 59.12 19.33 58.89 19C58.66 18.66 58.28 18.46 57.87 18.46H39.48C38.97 18.46 38.51 18.78 38.33 19.25L27.41 47.73C27.26 48.11 27.32 48.54 27.55 48.87C27.78 49.21 28.16 49.41 28.57 49.41H41.22L33.18 70.46C32.97 71.01 33.18 71.63 33.67 71.94C33.87 72.07 34.11 72.13 34.33 72.13C34.65 72.13 34.98 72 35.22 71.76L63.35 42.85C63.7 42.49 63.8 41.97 63.6 41.51C63.41 41.05 62.96 40.75 62.46 40.75V40.76ZM37.62 65.75L44.16 48.62C44.16 48.62 44.17 48.56 44.18 48.54C44.19 48.5 44.21 48.45 44.22 48.41C44.22 48.36 44.23 48.32 44.23 48.27C44.23 48.24 44.23 48.21 44.23 48.18C44.23 48.18 44.23 48.17 44.23 48.16C44.23 48.11 44.23 48.06 44.22 48.02C44.22 47.99 44.22 47.95 44.21 47.92C44.21 47.88 44.19 47.84 44.17 47.81C44.16 47.77 44.15 47.73 44.13 47.7C44.12 47.67 44.09 47.63 44.08 47.6C44.06 47.56 44.04 47.53 44.02 47.49C44 47.46 43.97 47.43 43.94 47.4C43.92 47.37 43.89 47.34 43.86 47.31C43.83 47.28 43.8 47.26 43.77 47.24C43.74 47.21 43.71 47.19 43.67 47.16C43.64 47.14 43.61 47.13 43.58 47.11C43.54 47.09 43.49 47.06 43.45 47.04C43.45 47.04 43.44 47.04 43.43 47.04C43.4 47.03 43.38 47.03 43.35 47.02C43.3 47.01 43.26 46.99 43.21 46.98C43.17 46.98 43.12 46.97 43.08 46.97C43.05 46.97 43.02 46.97 42.99 46.97H30.34L40.31 20.96H56.05L48.14 41.58C48.14 41.58 48.13 41.64 48.12 41.67C48.11 41.71 48.09 41.76 48.08 41.8C48.08 41.85 48.07 41.89 48.07 41.94C48.07 41.97 48.07 42 48.07 42.02C48.07 42.02 48.07 42.03 48.07 42.04C48.07 42.09 48.07 42.14 48.08 42.19C48.08 42.22 48.08 42.26 48.09 42.29C48.09 42.33 48.11 42.37 48.13 42.41C48.14 42.45 48.15 42.49 48.17 42.52C48.18 42.55 48.21 42.59 48.22 42.62C48.24 42.66 48.26 42.69 48.28 42.73C48.3 42.76 48.33 42.79 48.36 42.82C48.39 42.85 48.41 42.88 48.44 42.91C48.47 42.94 48.5 42.96 48.53 42.98C48.56 43.01 48.59 43.04 48.63 43.06C48.66 43.08 48.69 43.09 48.71 43.11C48.75 43.13 48.8 43.16 48.85 43.18C48.85 43.18 48.86 43.18 48.87 43.18C48.9 43.18 48.92 43.19 48.95 43.2C49 43.21 49.04 43.23 49.09 43.24C49.13 43.24 49.18 43.24 49.22 43.25C49.25 43.25 49.28 43.25 49.31 43.25H59.52L37.61 65.77L37.62 65.75Z" fill="black"/>
</g>
<defs>
<clipPath id="clip0_81_125">
<rect width="89.06" height="89.06" fill="white"/>
</clipPath>
</defs>
</svg>
