<svg width="95" height="95" viewBox="0 0 95 95" fill="none" xmlns="http://www.w3.org/2000/svg">
<g clip-path="url(#clip0_81_47)">
<path d="M18.26 92.4499H2.46999V76.6599C2.46999 75.9799 1.91999 75.4199 1.22999 75.4199C0.53999 75.4199 -0.0100098 75.9699 -0.0100098 76.6599V93.6799C-0.0100098 94.3599 0.53999 94.9199 1.22999 94.9199H18.25C18.93 94.9199 19.49 94.3699 19.49 93.6799C19.49 92.9899 18.94 92.4399 18.25 92.4399L18.26 92.4499Z" fill="black"/>
<path d="M93.69 0H76.67C75.99 0 75.43 0.55 75.43 1.24C75.43 1.93 75.98 2.48 76.67 2.48H92.46V18.27C92.46 18.95 93.01 19.51 93.7 19.51C94.39 19.51 94.94 18.96 94.94 18.27V1.24C94.94 0.56 94.39 0 93.7 0H93.69Z" fill="black"/>
<path d="M93.69 75.4299C93.01 75.4299 92.45 75.9799 92.45 76.6699V92.4599H76.66C75.98 92.4599 75.42 93.0099 75.42 93.6999C75.42 94.3899 75.97 94.9399 76.66 94.9399H93.68C94.36 94.9399 94.92 94.3899 94.92 93.6999V76.6799C94.92 75.9999 94.37 75.4399 93.68 75.4399L93.69 75.4299Z" fill="black"/>
<path d="M18.26 -9.76585e-06H1.24C0.55 -9.76585e-06 0 0.54999 0 1.23999V18.26C0 18.94 0.55 19.5 1.24 19.5C1.93 19.5 2.48 18.95 2.48 18.26V2.46999H18.27C18.95 2.46999 19.51 1.91999 19.51 1.22999C19.51 0.53999 18.96 -0.0100098 18.27 -0.0100098L18.26 -9.76585e-06Z" fill="black"/>
<path d="M33.18 68.83H26.09V61.74C26.09 61.06 25.54 60.5 24.85 60.5C24.16 60.5 23.61 61.05 23.61 61.74V70.06C23.61 70.74 24.16 71.3 24.85 71.3H33.17C33.85 71.3 34.41 70.75 34.41 70.06C34.41 69.37 33.86 68.82 33.17 68.82L33.18 68.83Z" fill="black"/>
<path d="M70.07 23.6201H61.75C61.07 23.6201 60.51 24.1701 60.51 24.8601C60.51 25.5501 61.06 26.1001 61.75 26.1001H68.84V33.1901C68.84 33.8701 69.39 34.4301 70.08 34.4301C70.77 34.4301 71.32 33.8801 71.32 33.1901V24.8701C71.32 24.1901 70.77 23.6301 70.08 23.6301L70.07 23.6201Z" fill="black"/>
<path d="M70.07 60.5C69.39 60.5 68.83 61.05 68.83 61.74V68.83H61.74C61.06 68.83 60.5 69.38 60.5 70.07C60.5 70.76 61.05 71.31 61.74 71.31H70.06C70.74 71.31 71.3 70.76 71.3 70.07V61.75C71.3 61.07 70.75 60.51 70.06 60.51L70.07 60.5Z" fill="black"/>
<path d="M33.18 23.6201H24.86C24.18 23.6201 23.62 24.1701 23.62 24.8601V33.1801C23.62 33.8601 24.17 34.4201 24.86 34.4201C25.55 34.4201 26.1 33.8701 26.1 33.1801V26.0901H33.19C33.87 26.0901 34.43 25.5401 34.43 24.8501C34.43 24.1601 33.88 23.6101 33.19 23.6101L33.18 23.6201Z" fill="black"/>
<path d="M58.21 46.26H48.4V36.45C48.4 35.77 47.85 35.21 47.16 35.21C46.47 35.21 45.92 35.76 45.92 36.45V46.26H36.11C35.43 46.26 34.87 46.81 34.87 47.5C34.87 48.19 35.42 48.74 36.11 48.74H45.92V58.55C45.92 59.23 46.47 59.79 47.16 59.79C47.85 59.79 48.4 59.24 48.4 58.55V48.74H58.21C58.89 48.74 59.45 48.19 59.45 47.5C59.45 46.81 58.9 46.26 58.21 46.26Z" fill="black"/>
</g>
<defs>
<clipPath id="clip0_81_47">
<rect width="94.93" height="94.93" fill="white"/>
</clipPath>
</defs>
</svg>
