<svg width="13" height="12" viewBox="0 0 13 12" fill="none" xmlns="http://www.w3.org/2000/svg">
<g clip-path="url(#clip0_93_274)">
<path d="M13.0001 6.47099C13.0001 6.55828 12.9909 6.64557 12.9731 6.73073C12.9219 6.97487 12.8843 7.22396 12.7947 7.4539C12.3086 8.70578 11.4047 9.45662 10.0573 9.61914C9.68135 9.66456 9.29617 9.63049 8.91526 9.6312C8.62745 9.63191 8.33963 9.6312 8.05182 9.6312C7.77324 9.6312 7.61263 9.49707 7.61476 9.26927C7.6169 9.04643 7.77608 8.91442 8.04613 8.91442C8.58765 8.91442 9.12988 8.89881 9.6714 8.91726C10.888 8.95913 11.9363 8.05855 12.2099 6.91312C12.541 5.52641 11.6499 4.09995 10.2563 3.79549C9.99901 3.73943 9.91089 3.64149 9.87749 3.37536C9.71119 2.044 8.71557 0.997221 7.39233 0.762316C6.09325 0.53238 4.77215 1.18032 4.16596 2.34491C4.00109 2.66071 3.8952 2.704 3.54485 2.61387C3.0481 2.48613 2.6082 2.60465 2.25074 2.96446C1.89755 3.32001 1.78384 3.75646 1.9075 4.24756C1.91247 4.26814 1.92029 4.28801 1.92526 4.30859C1.99207 4.57047 1.95227 4.68614 1.72415 4.83518C1.39867 5.04808 1.13573 5.31705 0.963039 5.66621C0.587103 6.42841 0.64964 7.17429 1.09167 7.88397C1.4541 8.46591 1.97785 8.82642 2.67429 8.90804C2.71978 8.913 2.76526 8.91513 2.81074 8.91513C3.53916 8.91513 4.26758 8.91513 4.99671 8.91655C5.18575 8.91655 5.31224 9.00739 5.36412 9.16991C5.41031 9.3161 5.36625 9.48359 5.23336 9.56024C5.15448 9.60636 5.05143 9.62978 4.95905 9.63049C4.37915 9.63688 3.79926 9.63546 3.21937 9.63262C2.98698 9.63191 2.75176 9.64256 2.52221 9.61346C1.69359 9.50772 1.05471 9.07765 0.575021 8.40984C0.123756 7.78106 -0.0709635 7.07564 0.0235535 6.30351C0.113096 5.57325 0.440708 4.96221 1.00141 4.48459C1.12507 4.37956 1.17623 4.28943 1.15349 4.11698C1.01207 3.03117 1.85633 1.978 2.94861 1.868C3.12769 1.85026 3.31175 1.86019 3.49226 1.87297C3.57256 1.87864 3.61165 1.86019 3.65287 1.79348C4.13966 1.00858 4.82545 0.474896 5.70239 0.183217C7.2104 -0.319238 8.95648 0.243539 9.88602 1.52735C10.2101 1.97516 10.4396 2.46413 10.5427 3.00775C10.5611 3.10355 10.6052 3.1433 10.6969 3.17523C12.0201 3.64007 12.7613 4.58253 12.9759 5.95576C12.9759 5.95576 12.9759 5.95576 12.9759 5.95647C12.9894 6.0388 13.0008 6.12183 13.0008 6.20486V6.47028L13.0001 6.47099Z" fill="black" fill-opacity="0.2"/>
<path d="M6.1416 5.68808C5.80404 6.02447 5.49348 6.3346 5.18221 6.64473C5.08343 6.74338 4.98536 6.84203 4.88587 6.94067C4.70181 7.12235 4.49572 7.13867 4.33867 6.98467C4.18161 6.83067 4.19796 6.61138 4.38202 6.42757C4.77643 6.03299 5.17155 5.63912 5.56668 5.24453C5.78201 5.0295 5.99662 4.81376 6.21337 4.59943C6.40454 4.40995 6.59713 4.40853 6.78829 4.59943C7.40514 5.21402 8.02199 5.82931 8.6367 6.44602C8.86127 6.67099 8.78807 6.99958 8.49955 7.07764C8.34747 7.1188 8.22879 7.05635 8.12361 6.95132C7.74199 6.56809 7.35824 6.18628 6.97519 5.80376C6.94606 5.77467 6.91479 5.74628 6.85936 5.69447V5.86409C6.85936 7.74829 6.85936 9.63249 6.85936 11.5167C6.85936 11.5713 6.86078 11.6267 6.85509 11.6813C6.83733 11.863 6.68809 11.9986 6.50545 12.0014C6.31997 12.0042 6.1615 11.8644 6.14444 11.6792C6.13947 11.6288 6.1416 11.5777 6.1416 11.5273C6.1416 9.63888 6.1416 7.75042 6.1416 5.86196V5.6895V5.68808Z" fill="black" fill-opacity="0.2"/>
</g>
<defs>
<clipPath id="clip0_93_274">
<rect width="13" height="12" fill="white"/>
</clipPath>
</defs>
</svg>
