<svg width="78" height="78" viewBox="0 0 78 78" fill="none" xmlns="http://www.w3.org/2000/svg">
<g clip-path="url(#clip0_81_122)">
<path d="M0.370003 30.28L30.29 0.36C30.77 -0.12 31.56 -0.12 32.04 0.36L43.89 12.21C44.37 12.69 44.37 13.48 43.89 13.96L39.96 17.89L52.62 30.54C61.83 27.12 70.92 28.42 76.52 34.01C77 34.49 77 35.28 76.52 35.76L57.03 55.25L76.77 75.02C77.25 75.5 77.25 76.29 76.77 76.77C76.53 77.01 76.21 77.13 75.9 77.13C75.59 77.13 75.27 77.01 75.03 76.77L55.27 57.01L35.78 76.5C35.54 76.74 35.22 76.86 34.91 76.86C34.6 76.86 34.28 76.74 34.04 76.5C28.45 70.91 27.15 61.81 30.57 52.6L17.91 39.94L13.98 43.87C13.74 44.11 13.42 44.23 13.11 44.23C12.8 44.23 12.48 44.11 12.24 43.87L0.390007 32.02C0.160007 31.79 0.0300064 31.47 0.0300064 31.15C0.0300064 30.83 0.160007 30.51 0.390007 30.28H0.370003ZM13.09 41.26L17.02 37.33C17.26 37.09 17.58 36.97 17.89 36.97C18.2 36.97 18.52 37.09 18.76 37.33L32.85 51.42L32.88 51.45C32.98 51.55 33.05 51.65 33.1 51.77C33.1 51.79 33.12 51.8 33.13 51.82C33.18 51.93 33.21 52.04 33.22 52.16C33.22 52.18 33.22 52.2 33.22 52.23C33.22 52.35 33.22 52.47 33.19 52.58C33.19 52.6 33.19 52.61 33.18 52.63C33.15 52.75 33.1 52.86 33.03 52.96C33.03 52.96 33.03 52.97 33.03 52.98C29.92 60.94 30.66 68.79 34.92 73.85L73.84 34.93C68.79 30.68 60.98 29.93 53.04 33.01C52.83 33.16 52.58 33.24 52.32 33.24C52 33.24 51.68 33.12 51.44 32.87L51.41 32.84L37.33 18.76C36.85 18.28 36.85 17.49 37.33 17.01L41.26 13.08L31.16 2.98L2.98 31.15L13.08 41.25L13.09 41.26Z" fill="black"/>
</g>
<defs>
<clipPath id="clip0_81_122">
<rect width="77.13" height="77.13" fill="white" transform="matrix(-1 0 0 1 77.13 0)"/>
</clipPath>
</defs>
</svg>
