<svg width="78" height="52" viewBox="0 0 78 52" fill="none" xmlns="http://www.w3.org/2000/svg">
<g clip-path="url(#clip0_93_246)">
<path d="M26.04 51.99C11.68 51.99 0 40.31 0 25.95C0 12.37 10.19 1.21999 23.71 0.0199855C26.46 -0.240014 28.89 1.80999 29.13 4.55999C29.37 7.30999 27.34 9.73999 24.59 9.97999C16.4 10.71 9.99 17.72 9.99 25.95C9.99 34.79 17.18 41.99 26.03 41.99C34.4 41.99 41.26 35.71 42 27.39C42.24 24.64 44.68 22.6 47.42 22.85C50.17 23.09 52.2 25.52 51.96 28.27C50.76 41.79 39.61 51.98 26.03 51.98L26.04 51.99Z" fill="#3676E1"/>
<path d="M53.62 51.99C51.06 51.99 48.88 50.03 48.65 47.43C48.41 44.68 50.44 42.25 53.19 42.01C61.38 41.28 67.7901 34.27 67.7901 26.04C67.7901 17.2 60.6 10 51.75 10C43.52 10 36.51 16.41 35.78 24.6C35.54 27.35 33.11 29.39 30.36 29.14C27.61 28.9 25.58 26.47 25.82 23.72C27.01 10.2 38.16 0 51.74 0C66.1 0 77.78 11.68 77.78 26.04C77.78 39.62 67.59 50.77 54.07 51.97C53.92 51.98 53.77 51.99 53.62 51.99Z" fill="#3676E1"/>
</g>
<defs>
<clipPath id="clip0_93_246">
<rect width="77.78" height="51.99" fill="white"/>
</clipPath>
</defs>
</svg>
