<svg width="22" height="20" viewBox="0 0 22 20" fill="none" xmlns="http://www.w3.org/2000/svg">
<g clip-path="url(#clip0_89_219)">
<path d="M-2.90946e-06 10.7848C-2.90946e-06 10.9303 0.0156302 11.0758 0.0456964 11.2177C0.132287 11.6246 0.196028 12.0398 0.347562 12.423C1.17017 14.5095 2.69994 15.7609 4.98015 16.0318C5.61635 16.1075 6.26819 16.0507 6.9128 16.0519C7.39988 16.053 7.88695 16.0519 8.37402 16.0519C8.84546 16.0519 9.11725 15.8283 9.11365 15.4486C9.11004 15.0772 8.84065 14.8572 8.38364 14.8572C7.46722 14.8572 6.54961 14.8312 5.63319 14.862C3.57426 14.9317 1.80036 13.4308 1.33734 11.5217C0.776906 9.21054 2.28502 6.8331 4.64341 6.32568C5.07877 6.23224 5.2279 6.06901 5.28442 5.62546C5.56584 3.40653 7.25075 1.66189 9.49007 1.27038C11.6885 0.887157 13.9242 1.96706 14.9501 3.90803C15.2291 4.43438 15.4083 4.50653 16.0012 4.35632C16.8418 4.14341 17.5863 4.34094 18.1912 4.94062C18.7889 5.5332 18.9814 6.26063 18.7721 7.07913C18.7637 7.11343 18.7504 7.14655 18.742 7.18085C18.629 7.6173 18.6963 7.8101 19.0824 8.05849C19.6332 8.41333 20.0782 8.86161 20.3704 9.44355C21.0066 10.7139 20.9008 11.957 20.1527 13.1398C19.5394 14.1097 18.653 14.7106 17.4744 14.8466C17.3975 14.8549 17.3205 14.8584 17.2435 14.8584C16.0108 14.8584 14.7781 14.8584 13.5442 14.8608C13.2243 14.8608 13.0102 15.0122 12.9224 15.283C12.8443 15.5267 12.9188 15.8058 13.1437 15.9336C13.2772 16.0105 13.4516 16.0495 13.6079 16.0507C14.5893 16.0613 15.5707 16.059 16.552 16.0542C16.9453 16.053 17.3434 16.0708 17.7318 16.0223C19.1341 15.8461 20.2153 15.1293 21.0271 14.0163C21.7907 12.9683 22.1203 11.7926 21.9603 10.5057C21.8088 9.2886 21.2544 8.27021 20.3055 7.47418C20.0962 7.29913 20.0096 7.14891 20.0481 6.86149C20.2874 5.0518 18.8587 3.29652 17.0102 3.11319C16.7072 3.08362 16.3957 3.10018 16.0902 3.12147C15.9543 3.13093 15.8882 3.10018 15.8184 2.989C14.9946 1.68082 13.834 0.79135 12.35 0.305218C9.79795 -0.532205 6.84305 0.405757 5.26999 2.54545C4.72158 3.29179 4.33313 4.10674 4.15874 5.01277C4.12748 5.17245 4.05291 5.23869 3.89777 5.29191C1.65844 6.06665 0.404086 7.63741 0.0408866 9.92613C0.0408866 9.92613 0.0408866 9.92613 0.0408866 9.92731C0.0180363 10.0645 -0.00120673 10.2029 -0.00120673 10.3413V10.7837L-2.90946e-06 10.7848Z" fill="#2563CA"/>
<path d="M11.6068 9.48014C12.178 10.0408 12.7036 10.5577 13.2304 11.0746C13.3975 11.239 13.5635 11.4034 13.7319 11.5678C14.0434 11.8706 14.3921 11.8978 14.6579 11.6411C14.9237 11.3845 14.896 11.019 14.5845 10.7126C13.9171 10.055 13.2484 9.39853 12.5797 8.74089C12.2153 8.3825 11.8521 8.02293 11.4853 7.66572C11.1618 7.34991 10.8359 7.34755 10.5124 7.66572C9.46849 8.69003 8.42459 9.71552 7.3843 10.7434C7.00426 11.1183 7.12814 11.666 7.61641 11.7961C7.87378 11.8647 8.07462 11.7606 8.25261 11.5855C8.89843 10.9468 9.54786 10.3105 10.1961 9.67294C10.2454 9.62444 10.2983 9.57713 10.3921 9.49079V9.77348C10.3921 12.9138 10.3921 16.0542 10.3921 19.1945C10.3921 19.2856 10.3897 19.3778 10.3993 19.4689C10.4294 19.7717 10.682 19.9976 10.991 20.0023C11.3049 20.0071 11.5731 19.7741 11.602 19.4654C11.6104 19.3814 11.6068 19.2962 11.6068 19.2122C11.6068 16.0648 11.6068 12.9174 11.6068 9.76993V9.48251V9.48014Z" fill="#2563CA"/>
</g>
<defs>
<clipPath id="clip0_89_219">
<rect width="22" height="20" fill="white" transform="matrix(-1 0 0 1 22 0)"/>
</clipPath>
</defs>
</svg>
