<svg width="13" height="13" viewBox="0 0 13 13" fill="none" xmlns="http://www.w3.org/2000/svg">
<g clip-path="url(#clip0_89_229)">
<path d="M12.7606 6.32487L7.1748 0.325718C7.1748 0.325718 7.15739 0.314284 7.14868 0.306661C7.11821 0.27617 7.08338 0.245678 7.04419 0.218999C7.03984 0.215187 7.03113 0.211376 7.02678 0.207564C6.87875 0.108468 6.6959 0.0474854 6.49563 0.0474854C6.29536 0.0474854 6.1125 0.108468 5.96448 0.207564C5.96012 0.211376 5.95142 0.215187 5.94706 0.218999C5.90788 0.245678 5.87305 0.27617 5.84258 0.306661C5.83387 0.314284 5.82516 0.318095 5.81645 0.325718L0.239377 6.32487C-0.0653809 6.65265 -0.00878294 7.13289 0.365634 7.39588C0.740052 7.66267 1.28862 7.61313 1.58902 7.28535L5.62924 2.94797V12.1944C5.62924 12.6137 6.02108 12.9567 6.49998 12.9567C6.97889 12.9567 7.37072 12.6137 7.37072 12.1944V2.94797L11.4109 7.28916C11.5851 7.47592 11.8333 7.5712 12.0858 7.5712C12.2773 7.5712 12.4732 7.51403 12.6343 7.39969C13.0087 7.13289 13.061 6.65265 12.7606 6.32868V6.32487Z" fill="white"/>
</g>
<defs>
<clipPath id="clip0_89_229">
<rect width="12.913" height="12.913" fill="white" transform="translate(0.043457 0.0435181)"/>
</clipPath>
</defs>
</svg>
