<svg width="100" height="92" viewBox="0 0 100 92" fill="none" xmlns="http://www.w3.org/2000/svg">
<g clip-path="url(#clip0_81_92)">
<path d="M99.75 85.69C99.75 85.69 99.75 85.63 99.75 85.6C99.75 85.54 99.75 85.49 99.75 85.43C99.75 85.4 99.74 85.37 99.73 85.33C99.72 85.28 99.71 85.22 99.69 85.17C99.69 85.15 99.69 85.14 99.68 85.12L96 75.44C95.76 74.8 95.04 74.48 94.4 74.72C93.76 74.96 93.44 75.68 93.68 76.31L96.13 82.74L79.9 73.37V40.92C79.9 40.92 79.9 40.89 79.9 40.87C79.9 40.8 79.89 40.72 79.87 40.65C79.87 40.62 79.86 40.6 79.85 40.57C79.82 40.48 79.79 40.39 79.74 40.3C79.69 40.21 79.63 40.14 79.56 40.07C79.54 40.05 79.52 40.03 79.5 40.02C79.44 39.97 79.39 39.92 79.32 39.88C79.31 39.88 79.3 39.86 79.28 39.85L51.18 23.63V4.71001L55.53 10.04C55.77 10.34 56.13 10.5 56.49 10.5C56.76 10.5 57.04 10.41 57.27 10.22C57.8 9.79001 57.88 9.01001 57.45 8.48001L50.91 0.46001C50.91 0.46001 50.89 0.44001 50.88 0.43001C50.83 0.38001 50.79 0.33001 50.73 0.29001C50.73 0.29001 50.71 0.28001 50.71 0.27001C50.5 0.11001 50.24 0.0100098 49.96 0.0100098C49.68 0.0100098 49.42 0.11001 49.21 0.27001C49.21 0.27001 49.19 0.28001 49.19 0.29001C49.14 0.33001 49.09 0.38001 49.04 0.43001C49.03 0.44001 49.02 0.45001 49.01 0.46001L42.47 8.49001C42.04 9.02001 42.12 9.80001 42.65 10.23C43.18 10.66 43.96 10.58 44.39 10.05L48.74 4.72001V23.66L20.64 39.88C20.64 39.88 20.61 39.9 20.6 39.91C20.54 39.95 20.48 40 20.42 40.05C20.4 40.07 20.38 40.08 20.36 40.1C20.29 40.17 20.23 40.24 20.18 40.33C20.13 40.42 20.1 40.51 20.07 40.6C20.07 40.63 20.06 40.65 20.05 40.68C20.03 40.75 20.02 40.83 20.02 40.9C20.02 40.92 20.02 40.93 20.02 40.95V73.36L3.65001 82.77L6.10001 76.33C6.34001 75.69 6.02001 74.98 5.38001 74.74C4.74001 74.5 4.03001 74.82 3.79001 75.46L0.0800098 85.13C0.0800098 85.13 0.0800098 85.16 0.0700098 85.18C0.0500098 85.23 0.0400098 85.28 0.0300098 85.33C0.0300098 85.36 0.0200098 85.4 0.0100098 85.43C0.0100098 85.49 0.0100098 85.54 0.0100098 85.6C0.0100098 85.63 0.0100098 85.66 0.0100098 85.69C0.0100098 85.75 0.0300098 85.82 0.0500098 85.88C0.0500098 85.9 0.0500098 85.92 0.0700098 85.95C0.10001 86.03 0.13001 86.11 0.18001 86.19C0.23001 86.28 0.30001 86.36 0.37001 86.43C0.40001 86.46 0.42001 86.48 0.45001 86.5C0.50001 86.54 0.55001 86.58 0.61001 86.62C0.64001 86.64 0.68001 86.66 0.71001 86.67C0.77001 86.7 0.82001 86.72 0.88001 86.74C0.92001 86.75 0.95001 86.76 0.99001 86.77C1.01001 86.77 1.03001 86.78 1.06001 86.79L11.28 88.44C11.35 88.45 11.41 88.46 11.48 88.46C12.08 88.46 12.6 88.03 12.7 87.42C12.81 86.75 12.35 86.11 11.68 86L4.90001 84.91L21.23 75.52L49.36 91.76C49.36 91.76 49.39 91.77 49.41 91.78C49.48 91.81 49.54 91.84 49.61 91.86C49.64 91.86 49.66 91.88 49.69 91.88C49.78 91.9 49.88 91.92 49.98 91.92C50.08 91.92 50.18 91.9 50.27 91.88C50.3 91.88 50.32 91.86 50.35 91.86C50.42 91.84 50.49 91.81 50.55 91.78C50.57 91.78 50.58 91.77 50.6 91.76L78.7 75.54L94.93 84.91L88.14 86.01C87.47 86.12 87.01 86.75 87.12 87.43C87.22 88.04 87.74 88.47 88.34 88.47C88.41 88.47 88.47 88.47 88.54 88.45L98.76 86.8C98.76 86.8 98.8 86.79 98.83 86.78C98.87 86.78 98.9 86.76 98.94 86.75C99 86.73 99.06 86.71 99.11 86.68C99.14 86.66 99.18 86.65 99.21 86.63C99.27 86.6 99.32 86.55 99.37 86.51C99.4 86.49 99.42 86.47 99.45 86.44C99.52 86.37 99.59 86.29 99.64 86.2C99.69 86.12 99.72 86.04 99.75 85.96C99.75 85.94 99.76 85.91 99.77 85.89C99.79 85.83 99.8 85.77 99.81 85.71L99.75 85.69ZM25.95 71.35C25.61 70.76 24.85 70.56 24.26 70.9L22.47 71.93V43.08L47.48 57.52L46.12 58.3C45.53 58.64 45.33 59.4 45.67 59.99C45.9 60.39 46.31 60.61 46.74 60.61C46.95 60.61 47.16 60.56 47.36 60.45L48.72 59.67V88.55L23.68 74.09L25.5 73.04C26.09 72.7 26.29 71.94 25.95 71.35ZM49.95 29.31C50.63 29.31 51.19 28.76 51.19 28.07V26.5L76.2 40.94L51.19 55.38V53.81C51.19 53.13 50.64 52.57 49.95 52.57C49.26 52.57 48.71 53.12 48.71 53.81V55.38L23.7 40.94L48.71 26.5V28.07C48.71 28.75 49.26 29.31 49.95 29.31ZM51.18 59.67L52.54 60.45C52.73 60.56 52.95 60.62 53.16 60.62C53.59 60.62 54 60.4 54.23 60C54.57 59.41 54.37 58.65 53.78 58.31L52.42 57.53L77.43 43.09V71.97L76.07 71.19C75.48 70.85 74.72 71.05 74.38 71.64C74.04 72.23 74.24 72.99 74.83 73.33L76.19 74.11L51.18 88.55V59.67Z" fill="black"/>
<path d="M68.6399 66.8899L61.2099 62.5999C60.6199 62.2599 59.8599 62.4599 59.5199 63.0499C59.1799 63.6399 59.3799 64.3999 59.9699 64.7399L67.3999 69.0299C67.5899 69.1399 67.8099 69.1999 68.0199 69.1999C68.4499 69.1999 68.8599 68.9799 69.0899 68.5799C69.4299 67.9899 69.2299 67.2299 68.6399 66.8899Z" fill="black"/>
<path d="M32.16 69.0101C32.37 69.0101 32.58 68.9601 32.78 68.8501L40.07 64.6501C40.66 64.3101 40.86 63.5501 40.52 62.9601C40.18 62.3701 39.42 62.1701 38.83 62.5101L31.54 66.7101C30.95 67.0501 30.75 67.8101 31.09 68.4001C31.32 68.8001 31.73 69.0201 32.16 69.0201V69.0101Z" fill="black"/>
<path d="M48.71 45.2399C48.71 45.9199 49.26 46.4799 49.95 46.4799C50.64 46.4799 51.19 45.9299 51.19 45.2399V36.6599C51.19 35.9799 50.64 35.4199 49.95 35.4199C49.26 35.4199 48.71 35.9699 48.71 36.6599V45.2399Z" fill="black"/>
</g>
<defs>
<clipPath id="clip0_81_92">
<rect width="99.75" height="91.92" fill="white"/>
</clipPath>
</defs>
</svg>
